<svg width="120" height="120" viewBox="0 0 120 120" fill="none" xmlns="http://www.w3.org/2000/svg">
<path d="M0 0H24C41.6731 0 56 14.3269 56 32V56H0V0Z" fill="#BA52FF" fill-opacity="0.1"/>
<path fill-rule="evenodd" clip-rule="evenodd" d="M91 35.7149C83.6629 35.7149 77.715 41.6628 77.715 48.9999C77.715 56.337 83.6629 62.2849 91 62.2849C98.3371 62.2849 104.285 56.337 104.285 48.9999C104.285 41.6628 98.3371 35.7149 91 35.7149ZM75.285 48.9999C75.285 47.3305 75.5453 45.7219 76.0276 44.2124H35.7125V47.379L64.121 67.8331C65.0938 68.5336 66.4056 68.5336 67.3785 67.8331L75.7313 61.819L79.1425 59.3134C76.7399 56.5534 75.285 52.9466 75.285 48.9999ZM35.5 41.7874H77.0342C79.6478 36.7368 84.9208 33.2849 91 33.2849C99.6792 33.2849 106.715 40.3208 106.715 48.9999C106.715 55.0791 103.263 60.3521 98.2125 62.9657V85.9999C98.2125 87.2218 97.2219 88.2124 96 88.2124H93.2125V95.9999C93.2125 97.2218 92.2219 98.2124 91 98.2124H27.5C26.278 98.2124 25.2875 97.2218 25.2875 95.9999V93.0307C25.287 93.0108 25.287 92.9909 25.2875 92.971V86.9999H18.7125C18.0429 86.9999 17.5 86.457 17.5 85.7874C17.5 85.1177 18.0429 84.5749 18.7125 84.5749H25.2875V74.9999L14.7125 74.9999C14.0429 74.9999 13.5 74.457 13.5 73.7874C13.5 73.1177 14.0429 72.5749 14.7125 72.5749L25.2875 72.5749V62.9999H18.7125C18.0429 62.9999 17.5 62.457 17.5 61.7874C17.5 61.1177 18.0429 60.5749 18.7125 60.5749H25.2875V51.9999C25.2875 50.778 26.278 49.7874 27.5 49.7874H33.2875V48.0287C33.287 48.0088 33.287 47.9889 33.2875 47.969V43.9999C33.2875 42.778 34.278 41.7874 35.5 41.7874ZM33.2875 52.2124H27.7125V90.6079L33.3405 86.4836C33.3058 86.3279 33.2875 86.166 33.2875 85.9999V82.0308C33.287 82.0109 33.287 81.991 33.2875 81.9712V52.2124ZM27.7125 93.6143V95.7874H90.7875V93.6148L83.4155 88.2124H35.5C35.3727 88.2124 35.248 88.2017 35.1267 88.1811L27.7125 93.6143ZM90.7875 90.6083V88.2124H87.5181L90.7875 90.6083ZM91 64.7149C92.6694 64.7149 94.278 64.4546 95.7875 63.9724V79.6331L75.4636 64.9999L77.1483 63.787L80.8945 61.0353C83.6265 63.3317 87.1517 64.7149 91 64.7149ZM35.7125 79.6327L56.0358 64.9999L35.7125 50.3672V79.6327ZM35.7125 82.6209V85.7874H83.7964L83.8099 85.7873L83.8299 85.7874H95.7875V82.6213L73.3885 66.494L68.7954 69.8011C66.9762 71.1109 64.5232 71.1109 62.704 69.8011L58.1109 66.494L35.7125 82.6209ZM97.6051 44.3551C98.0786 44.8286 98.0786 45.5963 97.6051 46.0698L90.425 53.2499C89.9515 53.7235 89.1838 53.7235 88.7103 53.2499L84.8551 49.3948C84.3816 48.9213 84.3816 48.1536 84.8551 47.6801C85.3286 47.2066 86.0964 47.2066 86.5699 47.6801L89.5676 50.6778L95.8904 44.3551C96.3639 43.8815 97.1316 43.8815 97.6051 44.3551ZM32.7125 101.5C32.0429 101.5 31.5 102.043 31.5 102.712C31.5 103.382 32.0429 103.925 32.7125 103.925L86 103.925C86.6696 103.925 87.2125 103.382 87.2125 102.712C87.2125 102.043 86.6696 101.5 86 101.5H32.7125Z" fill="#6100D2"/>
<path d="M45.413 30.8563C50.6053 30.8563 54.8259 26.6356 54.8259 21.4433C54.8259 16.251 50.6053 12 45.413 12C40.2206 12 36 16.2206 36 21.413C36 26.6053 40.2206 30.8563 45.413 30.8563ZM45.413 14.4291C49.2692 14.4291 52.3968 17.5567 52.3968 21.413C52.3968 25.2692 49.2692 28.3968 45.413 28.3968C41.5567 28.3968 38.4292 25.2692 38.4292 21.413C38.4292 17.5567 41.5567 14.4291 45.413 14.4291Z" fill="#6100D2"/>
<path d="M106.898 95.795C103.528 95.795 100.795 98.5278 100.795 101.898C100.795 105.269 103.528 108.002 106.898 108.002C110.269 108.002 113.001 105.269 113.001 101.898C113.001 98.5278 110.269 95.795 106.898 95.795ZM106.898 105.542C104.864 105.542 103.224 103.902 103.224 101.868C103.224 99.8335 104.864 98.2242 106.898 98.2242C108.933 98.2242 110.572 99.8639 110.572 101.898C110.572 103.933 108.902 105.542 106.898 105.542Z" fill="#6100D2"/>
<path d="M19.753 47.8765C19.753 44.3543 16.8988 41.5 13.3765 41.5C9.85425 41.5 7 44.3543 7 47.8765C7 51.3988 9.85425 54.253 13.3765 54.253C16.8988 54.253 19.753 51.3684 19.753 47.8765ZM9.45951 47.8765C9.45951 45.6903 11.2206 43.9291 13.4069 43.9291C15.5931 43.9291 17.3543 45.6903 17.3543 47.8765C17.3543 50.0628 15.5931 51.8239 13.4069 51.8239C11.2206 51.8239 9.45951 50.0324 9.45951 47.8765Z" fill="#6100D2"/>
</svg>
