<svg width="136" height="136" viewBox="0 0 136 136" fill="none" xmlns="http://www.w3.org/2000/svg">
<path fill-rule="evenodd" clip-rule="evenodd" d="M48.2871 28.278C48.3232 28.263 48.364 28.254 48.4103 28.254H50.9603V25.5H48.4103C47.9957 25.5 47.5968 25.5828 47.2321 25.734L48.2871 28.278ZM56.0603 28.254H61.1603V25.5H56.0603V28.254ZM66.2603 28.254H71.3603V25.5H66.2603V28.254ZM76.4603 28.254H81.5603V25.5H76.4603V28.254ZM86.6603 28.254H91.7603V25.5H86.6603V28.254ZM96.8603 28.254H99.4103C99.4567 28.254 99.4974 28.263 99.5336 28.278L100.589 25.734C100.224 25.5828 99.825 25.5 99.4103 25.5H96.8603V28.254ZM48.0873 28.577C48.0873 28.5307 48.0963 28.4899 48.1113 28.4537L45.5674 27.3988C45.4161 27.7635 45.3333 28.1623 45.3333 28.577V30.366H48.0873V28.577ZM99.7094 28.4537C99.7244 28.4899 99.7333 28.5307 99.7333 28.577V31.4576H102.487V28.577C102.487 28.1623 102.405 27.7635 102.253 27.3988L99.7094 28.4537ZM48.0873 35.7V33.9439H45.3333V35.7H37.077C35.3776 35.7 34 37.0776 34 38.777V107.91C34 109.61 35.3776 110.987 37.077 110.987H88.077C89.7764 110.987 91.154 109.61 91.154 107.91V100.787H92.8574V98.0333H91.154V38.777C91.154 37.0776 89.7764 35.7 88.077 35.7H48.0873ZM99.7333 37.2187V42.9798H102.487V37.2187H99.7333ZM99.7333 48.7409V54.502H102.487V48.7409H99.7333ZM99.7333 60.2631V66.0242H102.487V60.2631H99.7333ZM99.7333 71.7853V77.5464H102.487V71.7853H99.7333ZM99.7333 83.3076V89.0687H102.487V83.3076H99.7333ZM99.7333 94.8298V97.7103C99.7333 97.7567 99.7244 97.7974 99.7094 97.8336L102.253 98.8885C102.405 98.5238 102.487 98.125 102.487 97.7103V94.8298H99.7333ZM99.5336 98.0094C99.4974 98.0244 99.4567 98.0333 99.4103 98.0333H97.226V100.787H99.4103C99.825 100.787 100.224 100.705 100.589 100.553L99.5336 98.0094ZM36.754 38.777C36.754 38.5986 36.8986 38.454 37.077 38.454H88.077C88.2554 38.454 88.4 38.5986 88.4 38.777V107.91C88.4 108.089 88.2554 108.233 88.077 108.233H37.077C36.8986 108.233 36.754 108.089 36.754 107.91V38.777ZM64.277 79.6564C68.7023 79.6564 72.2897 76.069 72.2897 71.6437C72.2897 67.2184 68.7023 63.631 64.277 63.631C59.8518 63.631 56.2644 67.2184 56.2644 71.6437C56.2644 76.069 59.8518 79.6564 64.277 79.6564ZM64.277 82.4104C70.2233 82.4104 75.0437 77.59 75.0437 71.6437C75.0437 65.6974 70.2233 60.877 64.277 60.877C58.3308 60.877 53.5104 65.6974 53.5104 71.6437C53.5104 73.869 54.1855 75.9367 55.3421 77.653L48.2797 84.3C47.7259 84.8212 47.6995 85.6926 48.2207 86.2464C48.742 86.8002 49.6134 86.8266 50.1672 86.3054L57.1606 79.7234C59.058 81.3958 61.549 82.4104 64.277 82.4104Z" fill="#D3D3D3"/>
</svg>
