<svg width="108" height="32" viewBox="0 0 108 32" fill="none" xmlns="http://www.w3.org/2000/svg">
<g clip-path="url(#clip0_16_101)">
<path d="M0.00863698 31.5034C0.00575799 31.4458 0 31.3882 0 31.3321C0 20.9144 0 10.4968 0 0.0791723C0 0.0561404 0.0014395 0.0331084 0.0014395 0.0100765C0.220243 0.00863698 0.439047 0.00431849 0.65785 0.00431849C2.46586 0.00431849 4.27243 0.00575798 6.08043 0C6.22726 0 6.25749 0.0403059 6.25605 0.181377C6.25173 4.71723 6.25317 9.25452 6.25461 13.7904C6.25461 13.8566 6.20423 13.9646 6.29492 13.9833C6.36977 13.9991 6.36977 13.8839 6.39568 13.8249C6.79442 12.9612 7.43788 12.3163 8.22384 11.8082C9.31354 11.1043 10.5242 10.7746 11.8139 10.7473C12.8518 10.7257 13.8854 10.8034 14.8858 11.1028C16.7111 11.6498 17.9664 12.823 18.6875 14.5807C19.082 15.5408 19.259 16.5499 19.3785 17.5734C19.5196 18.7797 19.5253 19.9917 19.5239 21.2052C19.5196 24.5693 19.521 27.932 19.5268 31.2961C19.5268 31.476 19.4764 31.5091 19.308 31.5091C17.356 31.5034 15.4055 31.5034 13.4535 31.5091C13.2966 31.5091 13.2549 31.4717 13.2549 31.3119C13.2592 27.9651 13.265 24.6197 13.2534 21.2729C13.2506 20.5099 13.2405 19.7441 13.0908 18.9913C12.9699 18.3838 12.7813 17.8051 12.4013 17.3013C11.9464 16.6982 11.3418 16.3671 10.5918 16.2908C9.96276 16.226 9.33658 16.239 8.72767 16.4146C7.58039 16.7457 6.91102 17.5475 6.56698 18.6559C6.35538 19.3368 6.30644 20.0421 6.27189 20.7475C6.25893 21.0166 6.25317 21.2873 6.25173 21.5565C6.25029 24.8054 6.25029 28.0529 6.25461 31.3018C6.25461 31.4645 6.2215 31.5106 6.0502 31.5106C4.03779 31.5019 2.02393 31.5034 0.00863698 31.5034Z" fill="#6100D2"/>
<path d="M43.598 19.4634C43.1014 16.4779 41.5568 14.1589 39.006 12.5279C37.401 11.503 35.6232 10.9733 33.7332 10.8034C31.8287 10.6321 29.9646 10.8207 28.1609 11.4685C25.1768 12.5394 23.0391 14.5159 21.8919 17.4855C21.0785 19.593 20.985 21.7767 21.5003 23.959C22.2359 27.074 24.0842 29.3455 26.9517 30.7735C28.5553 31.5724 30.2697 31.9424 32.0576 31.9971C32.3354 31.9971 32.6118 31.9985 32.8896 31.9985C34.3795 31.9539 35.8247 31.6847 37.211 31.1291C40.0209 30.002 42.0117 28.0471 43.0942 25.2142C43.8067 23.3515 43.9233 21.4168 43.598 19.4634ZM37.0267 23.7488C36.3919 25.2646 35.2144 26.1427 33.5892 26.4032C32.5412 26.5716 31.4976 26.5414 30.4914 26.1801C28.9799 25.636 28.0918 24.5218 27.6743 23.0017C27.5289 22.4734 27.4771 21.9307 27.4829 21.5118C27.4814 20.3429 27.67 19.3497 28.2141 18.4457C28.9497 17.2221 30.0452 16.5398 31.4444 16.3311C32.3469 16.1972 33.2466 16.2188 34.1305 16.4606C35.5498 16.8493 36.5387 17.7418 37.067 19.0978C37.6702 20.6424 37.6687 22.2186 37.0267 23.7488Z" fill="#6100D2"/>
<path d="M107.025 20.0406C106.86 18.473 106.462 16.9716 105.732 15.5696C104.824 13.8263 103.506 12.502 101.708 11.6772C100.599 11.169 99.4274 10.907 98.2154 10.7991C96.4794 10.645 94.7808 10.8077 93.1369 11.3979C90.4623 12.3566 88.4498 14.0754 87.2752 16.6823C86.2114 19.0445 86.0214 21.5233 86.6202 24.0266C87.3587 27.1114 89.2099 29.3599 92.0543 30.7735C93.6637 31.5739 95.3839 31.9438 97.1761 31.9971C97.4309 31.9971 97.6857 31.9985 97.939 31.9985C98.8229 31.9683 99.6909 31.846 100.543 31.6113C102.728 31.0053 104.6 29.9041 106.046 28.1321C106.13 28.0284 106.136 27.9809 106.019 27.8974C105.18 27.2914 104.346 26.6767 103.511 26.0664C102.964 25.6648 102.414 25.266 101.87 24.8615C101.781 24.7953 101.728 24.7939 101.675 24.8917C101.654 24.9263 101.626 24.9565 101.601 24.9882C101.025 25.718 100.353 26.3428 99.521 26.7688C98.7279 27.1762 97.8685 27.2741 96.9889 27.2352C96.1037 27.1949 95.2803 26.9545 94.5476 26.4406C93.5313 25.7281 92.9281 24.7392 92.6316 23.5487C92.5798 23.3371 92.5783 23.3385 92.7928 23.3385C97.4841 23.3385 102.175 23.3385 106.867 23.3371C106.942 23.3371 107.016 23.3342 107.091 23.3313C107.094 22.5497 107.096 21.7666 107.099 20.9835C107.074 20.6697 107.058 20.3544 107.025 20.0406ZM100.683 19.0848C99.3584 19.0819 98.0355 19.0834 96.7126 19.0834C95.394 19.0834 94.0768 19.0791 92.7583 19.0877C92.587 19.0891 92.5783 19.0316 92.5942 18.8905C92.8576 16.5383 94.8628 15.4256 96.3887 15.2874C97.1861 15.214 97.9721 15.2442 98.6991 15.6056C100.071 16.2879 100.788 17.4035 100.842 18.9394C100.847 19.0719 100.794 19.0848 100.683 19.0848Z" fill="#6100D2"/>
<path d="M53.2715 31.9999C53.0282 31.9999 52.785 31.9999 52.5417 31.9999C51.6535 31.9712 50.774 31.8776 49.9247 31.6041C48.0634 31.0038 46.8226 29.763 46.1503 27.9362C45.8063 27.0006 45.6666 26.0246 45.5644 25.0414C45.4392 23.8337 45.4406 22.6202 45.4421 21.4081C45.445 18.0901 45.445 14.7721 45.4392 11.454C45.4392 11.2856 45.4824 11.2482 45.6479 11.2482C47.5941 11.2539 49.5403 11.2525 51.4865 11.2525C51.7428 11.2525 51.7097 11.2223 51.7097 11.4684C51.7097 14.677 51.7082 17.8857 51.7111 21.0943C51.7111 21.8702 51.7241 22.6461 51.8205 23.4177C51.8968 24.0194 52.0494 24.6024 52.356 25.1321C52.7878 25.8763 53.414 26.3427 54.2878 26.4492C54.9687 26.5313 55.6452 26.5212 56.3031 26.3197C57.3885 25.9872 58.0377 25.2199 58.3788 24.1662C58.6164 23.4321 58.6927 22.6691 58.6955 21.9048C58.7085 18.4313 58.7071 14.9592 58.7099 11.4857C58.7099 11.2539 58.7099 11.2539 58.9359 11.2539C60.8879 11.2539 62.8398 11.2554 64.7918 11.2496C64.953 11.2496 64.9861 11.2942 64.9861 11.4483C64.9818 18.0671 64.9818 24.6859 64.9861 31.3047C64.9861 31.4688 64.9501 31.512 64.7817 31.512C62.824 31.5048 60.8663 31.5048 58.9086 31.512C58.7243 31.5134 58.6941 31.4573 58.697 31.2917C58.7056 30.6252 58.7013 29.9573 58.6999 29.2908C58.6999 29.2375 58.7171 29.18 58.6768 29.1138C58.507 29.3541 58.3328 29.5802 58.1471 29.7961C57.3683 30.7044 56.3736 31.2759 55.2523 31.6501C54.6088 31.8632 53.9466 31.9726 53.2715 31.9999Z" fill="#6100D2"/>
<path d="M74.1542 26.5011C74.2579 26.5011 74.3126 26.5011 74.3687 26.5011C75.2267 26.5011 76.0846 26.5025 76.9425 26.4997C77.0476 26.4997 77.0937 26.5169 77.0937 26.6393C77.0894 28.2155 77.0894 29.7903 77.0937 31.3666C77.0937 31.4846 77.0519 31.5077 76.9425 31.5077C73.7987 31.5048 70.6548 31.5048 67.5124 31.5077C67.3972 31.5077 67.3684 31.4746 67.3684 31.3623C67.3713 29.3671 67.3713 27.372 67.3684 25.3768C67.3684 25.289 67.3915 25.23 67.4606 25.171C70.0315 22.9743 72.5996 20.7748 75.1691 18.5767C76.0601 17.8137 76.9512 17.0522 77.8811 16.2562C77.7731 16.2562 77.7084 16.2562 77.645 16.2562C74.2881 16.2562 70.9312 16.2562 67.5757 16.2562C67.3296 16.2562 67.3598 16.2893 67.3598 16.0331C67.3584 14.5029 67.3613 12.9741 67.3569 11.444C67.3569 11.3043 67.3742 11.2496 67.5383 11.2496C73.3539 11.2554 79.168 11.254 84.9836 11.2511C85.1232 11.2511 85.1664 11.2799 85.1664 11.4281C85.1606 13.3196 85.1606 15.2111 85.1664 17.1041C85.1664 17.2307 85.1146 17.3013 85.0267 17.3761C82.9683 19.1006 80.9112 20.828 78.8542 22.5554C77.3298 23.8351 75.8068 25.1149 74.2824 26.3946C74.2492 26.4147 74.2205 26.4421 74.1542 26.5011Z" fill="#6100D2"/>
<path d="M82.6171 31.5049C81.8397 31.5049 81.0639 31.502 80.2865 31.5077C80.1498 31.5092 80.1008 31.4833 80.1008 31.3321C80.1066 29.7746 80.1066 28.2185 80.1008 26.661C80.1008 26.5343 80.1296 26.4983 80.2606 26.4983C81.8253 26.5026 83.3901 26.5026 84.9548 26.4983C85.0887 26.4983 85.1146 26.5386 85.1146 26.6638C85.1103 28.2214 85.1103 29.7775 85.1146 31.335C85.1146 31.4689 85.0829 31.5092 84.9447 31.5077C84.1717 31.5005 83.3944 31.5049 82.6171 31.5049Z" fill="#6100D2"/>
</g>
<defs>
<clipPath id="clip0_16_101">
<rect width="107.099" height="32" fill="white"/>
</clipPath>
</defs>
</svg>
