<svg width="134" height="40" viewBox="0 0 134 40" fill="none" xmlns="http://www.w3.org/2000/svg">
<g clip-path="url(#clip0_2_1344)">
<path d="M0.0107962 39.3792C0.00719748 39.3072 0 39.2353 0 39.1651C0 26.143 0 13.121 0 0.0989654C0 0.0701754 0.00179937 0.0413855 0.00179937 0.0125956C0.275304 0.0107962 0.548808 0.00539811 0.822312 0.00539811C3.08232 0.00539811 5.34053 0.00719748 7.60054 0C7.78408 0 7.82186 0.0503824 7.82006 0.226721C7.81467 5.89654 7.81646 11.5682 7.81826 17.238C7.81826 17.3207 7.75529 17.4557 7.86865 17.4791C7.96221 17.4989 7.96221 17.3549 7.9946 17.2812C8.49303 16.2015 9.29735 15.3954 10.2798 14.7602C11.6419 13.8803 13.1552 13.4683 14.7674 13.4341C16.0648 13.4071 17.3567 13.5043 18.6073 13.8785C20.8889 14.5623 22.4579 16.0288 23.3594 18.2258C23.8525 19.426 24.0738 20.6874 24.2231 21.9667C24.3995 23.4746 24.4067 24.9897 24.4049 26.5065C24.3995 30.7116 24.4013 34.915 24.4085 39.1201C24.4085 39.345 24.3455 39.3864 24.135 39.3864C21.695 39.3792 19.2569 39.3792 16.8169 39.3864C16.6208 39.3864 16.5686 39.3396 16.5686 39.1399C16.574 34.9564 16.5812 30.7746 16.5668 26.5911C16.5632 25.6374 16.5506 24.6802 16.3635 23.7391C16.2123 22.9798 15.9766 22.2564 15.5016 21.6266C14.933 20.8727 14.1772 20.4588 13.2398 20.3635C12.4534 20.2825 11.6707 20.2987 10.9096 20.5182C9.47548 20.9321 8.63878 21.9343 8.20873 23.3198C7.94422 24.1709 7.88304 25.0526 7.83986 25.9343C7.82366 26.2708 7.81646 26.6091 7.81467 26.9456C7.81287 31.0067 7.81287 35.0661 7.81826 39.1273C7.81826 39.3306 7.77688 39.3882 7.56275 39.3882C5.04723 39.3774 2.52991 39.3792 0.0107962 39.3792Z" fill="white"/>
<path d="M54.4975 24.3293C53.8767 20.5974 51.946 17.6986 48.7575 15.6599C46.7512 14.3788 44.529 13.7166 42.1664 13.5043C39.7859 13.2901 37.4557 13.5259 35.2011 14.3356C31.471 15.6743 28.7989 18.1448 27.3648 21.8569C26.3482 24.4912 26.2312 27.2209 26.8754 29.9487C27.7949 33.8425 30.1053 36.682 33.6896 38.4669C35.6941 39.4656 37.8372 39.928 40.072 39.9964C40.4192 39.9964 40.7647 39.9982 41.112 39.9982C42.9744 39.9424 44.7809 39.6059 46.5137 38.9114C50.0261 37.5025 52.5146 35.0589 53.8677 31.5178C54.7584 29.1894 54.9042 26.771 54.4975 24.3293ZM46.2834 29.686C45.4899 31.5807 44.018 32.6784 41.9865 33.004C40.6766 33.2146 39.372 33.1768 38.1143 32.7251C36.2249 32.045 35.1147 30.6523 34.5929 28.7521C34.4112 28.0918 34.3464 27.4134 34.3536 26.8898C34.3518 25.4287 34.5875 24.1871 35.2677 23.0571C36.1871 21.5277 37.5565 20.6748 39.3054 20.4139C40.4336 20.2465 41.5583 20.2735 42.6631 20.5758C44.4372 21.0616 45.6734 22.1772 46.3338 23.8722C47.0877 25.803 47.0859 27.7733 46.2834 29.686Z" fill="white"/>
<path d="M133.781 25.0508C133.574 23.0913 133.078 21.2146 132.166 19.462C131.03 17.283 129.382 15.6275 127.134 14.5965C125.749 13.9613 124.284 13.6338 122.769 13.4989C120.599 13.3063 118.476 13.5097 116.421 14.2474C113.078 15.4458 110.562 17.5942 109.094 20.8529C107.764 23.8057 107.527 26.9042 108.275 30.0333C109.198 33.8893 111.512 36.7 115.068 38.4669C117.08 39.4674 119.23 39.9298 121.47 39.9964C121.789 39.9964 122.107 39.9982 122.424 39.9982C123.529 39.9604 124.614 39.8075 125.679 39.5142C128.41 38.7566 130.749 37.3801 132.558 35.1651C132.662 35.0355 132.669 34.9762 132.524 34.8718C131.475 34.1143 130.433 33.3459 129.389 32.583C128.705 32.081 128.018 31.5826 127.338 31.0769C127.226 30.9942 127.16 30.9924 127.093 31.1147C127.068 31.1579 127.032 31.1957 127.001 31.2353C126.282 32.1476 125.441 32.9285 124.401 33.4611C123.41 33.9703 122.336 34.0927 121.236 34.0441C120.13 33.9937 119.1 33.6932 118.184 33.0508C116.914 32.1601 116.16 30.924 115.789 29.4359C115.725 29.1714 115.723 29.1732 115.991 29.1732C121.855 29.1732 127.719 29.1732 133.583 29.1714C133.677 29.1714 133.771 29.1678 133.864 29.1642C133.868 28.1871 133.87 27.2083 133.873 26.2294C133.843 25.8372 133.823 25.4431 133.781 25.0508ZM125.853 23.8561C124.198 23.8525 122.544 23.8543 120.891 23.8543C119.242 23.8543 117.596 23.8489 115.948 23.8597C115.734 23.8615 115.723 23.7895 115.743 23.6131C116.072 20.673 118.578 19.2821 120.486 19.1093C121.483 19.0175 122.465 19.0553 123.374 19.507C125.089 20.3599 125.985 21.7544 126.053 23.6743C126.058 23.8399 125.992 23.8561 125.853 23.8561Z" fill="white"/>
<path d="M66.5893 40C66.2852 40 65.9811 40 65.677 40C64.5668 39.964 63.4674 39.847 62.4058 39.5052C60.0792 38.7548 58.5281 37.2038 57.6878 34.9204C57.2578 33.7508 57.0832 32.5308 56.9555 31.3018C56.7989 29.7922 56.8007 28.2753 56.8025 26.7602C56.8061 22.6127 56.8061 18.4651 56.799 14.3176C56.799 14.1071 56.8529 14.0603 57.0599 14.0603C59.4926 14.0675 61.9254 14.0657 64.3581 14.0657C64.6784 14.0657 64.637 14.0279 64.637 14.3356C64.637 18.3464 64.6352 22.3572 64.6388 26.368C64.6388 27.3378 64.655 28.3077 64.7756 29.2722C64.8709 30.0243 65.0617 30.753 65.4449 31.4152C65.9847 32.3455 66.7675 32.9285 67.8597 33.0616C68.7108 33.1642 69.5565 33.1516 70.3788 32.8997C71.7355 32.484 72.547 31.525 72.9735 30.2078C73.2704 29.2901 73.3658 28.3365 73.3694 27.381C73.3855 23.0391 73.3837 18.6991 73.3873 14.3572C73.3873 14.0675 73.3873 14.0675 73.6698 14.0675C76.1098 14.0675 78.5497 14.0693 80.9897 14.0621C81.1912 14.0621 81.2326 14.1179 81.2326 14.3104C81.2272 22.5839 81.2272 30.8574 81.2326 39.1309C81.2326 39.336 81.1876 39.39 80.9771 39.39C78.5299 39.381 76.0828 39.381 73.6357 39.39C73.4053 39.3918 73.3676 39.3216 73.3712 39.1147C73.3819 38.2816 73.3765 37.4467 73.3747 36.6136C73.3747 36.547 73.3963 36.475 73.346 36.3923C73.1336 36.6928 72.9159 36.9753 72.6838 37.2452C71.7103 38.3806 70.467 39.0949 69.0653 39.5627C68.2609 39.8291 67.4332 39.9658 66.5893 40Z" fill="white"/>
<path d="M92.6928 33.1264C92.8223 33.1264 92.8907 33.1264 92.9609 33.1264C94.0333 33.1264 95.1057 33.1282 96.1782 33.1246C96.3095 33.1246 96.3671 33.1462 96.3671 33.2991C96.3617 35.2695 96.3617 37.238 96.3671 39.2083C96.3671 39.3558 96.3149 39.3846 96.1782 39.3846C92.2483 39.381 88.3185 39.381 84.3905 39.3846C84.2465 39.3846 84.2106 39.3432 84.2106 39.2029C84.2142 36.7089 84.2142 34.215 84.2106 31.7211C84.2106 31.6113 84.2394 31.5376 84.3257 31.4638C87.5394 28.7179 90.7495 25.9685 93.9613 23.2209C95.0752 22.2672 96.189 21.3153 97.3514 20.3203C97.2164 20.3203 97.1354 20.3203 97.0563 20.3203C92.8601 20.3203 88.664 20.3203 84.4697 20.3203C84.162 20.3203 84.1998 20.3617 84.1998 20.0414C84.198 18.1287 84.2016 16.2177 84.1962 14.305C84.1962 14.1305 84.2178 14.0621 84.4229 14.0621C91.6923 14.0693 98.96 14.0675 106.229 14.0639C106.404 14.0639 106.458 14.0999 106.458 14.2852C106.451 16.6496 106.451 19.0139 106.458 21.3801C106.458 21.5385 106.393 21.6266 106.283 21.7202C103.71 23.8758 101.139 26.0351 98.5677 28.1943C96.6622 29.794 94.7585 31.3936 92.8529 32.9932C92.8116 33.0184 92.7756 33.0526 92.6928 33.1264Z" fill="white"/>
<path d="M103.271 39.381C102.3 39.381 101.33 39.3774 100.358 39.3846C100.187 39.3864 100.126 39.354 100.126 39.1651C100.133 37.2182 100.133 35.2731 100.126 33.3261C100.126 33.1678 100.162 33.1228 100.326 33.1228C102.282 33.1282 104.238 33.1282 106.193 33.1228C106.361 33.1228 106.393 33.1732 106.393 33.3297C106.388 35.2767 106.388 37.2218 106.393 39.1687C106.393 39.336 106.354 39.3864 106.181 39.3846C105.215 39.3756 104.243 39.381 103.271 39.381Z" fill="white"/>
</g>
<defs>
<clipPath id="clip0_2_1344">
<rect width="133.873" height="40" fill="white"/>
</clipPath>
</defs>
</svg>
